<svg width="53" height="55" viewBox="0 0 53 55" fill="none" xmlns="http://www.w3.org/2000/svg">
<path fill-rule="evenodd" clip-rule="evenodd" d="M28.147 1.00734C29.072 0.436428 29.8022 7.35716e-06 31.0263 7.35716e-06C31.634 -0.00107744 32.2359 0.11781 32.7975 0.349852C33.3591 0.581894 33.8694 0.922525 34.2991 1.35221C34.7288 1.78189 35.0694 2.29217 35.3014 2.85379C35.5335 3.41541 35.6524 4.01731 35.6513 4.62497V4.71006C35.652 5.31749 35.5329 5.9191 35.3007 6.48039C35.0685 7.04169 34.7278 7.55165 34.2981 7.98104C33.8685 8.41044 33.3583 8.75082 32.7969 8.98269C32.2354 9.21456 31.6338 9.33336 31.0263 9.33227C29.7939 9.33227 29.0748 8.89585 28.147 8.32494C28.0918 8.29092 28.0316 8.2533 27.9665 8.21263C26.9388 7.57061 24.6931 6.16754 21.4278 6.16754C18.1557 6.16754 15.905 7.57649 14.8823 8.21665C14.8198 8.25578 14.7619 8.29205 14.7086 8.32494C13.7836 8.89585 13.0535 9.33227 11.8293 9.33227C11.2217 9.33336 10.6197 9.21447 10.0581 8.98243C9.4965 8.75039 8.98623 8.40976 8.55655 7.98007C8.12686 7.55039 7.78623 7.04011 7.55419 6.47849C7.32215 5.91688 7.20326 5.31498 7.20434 4.70731V4.62222C7.20362 4.01479 7.32278 3.41319 7.55498 2.85189C7.78718 2.29059 8.12787 1.78063 8.55752 1.35124C8.98717 0.921847 9.49732 0.581462 10.0588 0.349591C10.6202 0.117721 11.2219 -0.00107649 11.8293 7.35716e-06C13.0535 7.35716e-06 13.7809 0.436428 14.7086 1.00734C14.7656 1.04244 14.8279 1.08138 14.8953 1.12354C15.9246 1.76732 18.1588 3.16474 21.4278 3.16474C24.7036 3.16474 26.9427 1.76155 27.9671 1.11957L27.9673 1.11946L28.0032 1.09699C28.0544 1.06493 28.1023 1.03495 28.147 1.00734ZM39.0453 16.2272C39.9676 15.6563 40.7004 15.2226 41.9246 15.2226C42.532 15.2215 43.1337 15.3403 43.6951 15.5722C44.2566 15.804 44.7668 16.1444 45.1964 16.5738C45.626 17.0032 45.9667 17.5132 46.1989 18.0745C46.4311 18.6358 46.5503 19.2374 46.5496 19.8448V19.9271C46.5506 20.5346 46.4319 21.1362 46.2 21.6977C45.9681 22.2591 45.6277 22.7693 45.1983 23.1989C44.7689 23.6286 44.259 23.9693 43.6977 24.2015C43.1364 24.4337 42.5348 24.5528 41.9274 24.5521C40.6949 24.5521 39.9786 24.1157 39.0481 23.5448C38.992 23.5103 38.9308 23.4722 38.8646 23.4309L38.8639 23.4305C37.8323 22.7876 35.5855 21.3874 32.3261 21.3874C29.0479 21.3874 26.7892 22.8038 25.7721 23.4415C25.7128 23.4787 25.6577 23.5133 25.6069 23.5448C24.6846 24.1157 23.9518 24.5521 22.7276 24.5521C22.1202 24.5528 21.5185 24.4337 20.9572 24.2015C20.3959 23.9693 19.886 23.6286 19.4566 23.1989C19.0272 22.7693 18.6868 22.2591 18.455 21.6977C18.2231 21.1362 18.1043 20.5346 18.1054 19.9271V19.8448C18.105 19.2385 18.2241 18.6381 18.4557 18.0778C18.6874 17.5176 19.0272 17.0084 19.4556 16.5795C19.8841 16.1505 20.3928 15.8101 20.9528 15.5778C21.5128 15.3455 22.1131 15.2257 22.7194 15.2253C23.9518 15.2253 24.6682 15.659 25.5986 16.2299C25.6579 16.2662 25.7226 16.3067 25.793 16.3506L25.7933 16.3508C26.8281 16.9969 29.0593 18.3901 32.3179 18.3901C35.5992 18.3901 37.8534 16.975 38.8734 16.3346C38.9353 16.2958 38.9926 16.2598 39.0453 16.2272ZM39.0467 46.6285C39.9689 46.0576 40.7018 45.6212 41.9259 45.6212C42.5331 45.6204 43.1345 45.7395 43.6956 45.9715C44.2568 46.2036 44.7666 46.544 45.196 46.9734C45.6253 47.4027 45.9657 47.9126 46.1978 48.4737C46.4298 49.0348 46.5489 49.6362 46.5482 50.2434V50.3285C46.5489 50.9357 46.4298 51.537 46.1978 52.0982C45.9657 52.6593 45.6253 53.1691 45.196 53.5985C44.7666 54.0278 44.2568 54.3683 43.6956 54.6003C43.1345 54.8323 42.5331 54.9514 41.9259 54.9507C40.6935 54.9507 39.9771 54.5143 39.0467 53.9433C38.9903 53.9088 38.9289 53.8705 38.8624 53.8291C37.8308 53.1862 35.5841 51.7859 32.3247 51.7859C29.0465 51.7859 26.7878 53.2024 25.7707 53.8401C25.7114 53.8773 25.6563 53.9119 25.6054 53.9433C24.6832 54.5143 23.9503 54.9507 22.7262 54.9507C22.119 54.9514 21.5176 54.8323 20.9565 54.6003C20.3953 54.3683 19.8855 54.0278 19.4562 53.5985C19.0268 53.1691 18.6864 52.6593 18.4543 52.0982C18.2223 51.537 18.1032 50.9357 18.104 50.3285V50.2434C18.1032 49.6362 18.2223 49.0348 18.4543 48.4737C18.6864 47.9126 19.0268 47.4027 19.4562 46.9734C19.8855 46.544 20.3953 46.2036 20.9565 45.9715C21.5176 45.7395 22.119 45.6204 22.7262 45.6212C23.9586 45.6212 24.675 46.0576 25.6054 46.6285L25.6736 46.6705L25.7928 46.7448C26.8253 47.3886 29.0661 48.7859 32.3247 48.7859C35.6056 48.7859 37.8645 47.3694 38.8815 46.7317C38.9408 46.6945 38.9959 46.6599 39.0467 46.6285ZM31.0263 30.3975C29.8022 30.3975 29.072 30.834 28.147 31.4049C28.0937 31.4378 28.0358 31.474 27.9733 31.5132C26.9507 32.1533 24.6999 33.5623 21.4278 33.5623C18.1625 33.5623 15.9168 32.1592 14.8892 31.5172C14.8241 31.4765 14.7639 31.4389 14.7086 31.4049C13.7808 30.834 13.0617 30.3975 11.8293 30.3975C11.2217 30.3968 10.62 30.5159 10.0586 30.7481C9.4971 30.9803 8.98696 31.3209 8.55735 31.7505C8.12774 32.1802 7.78709 32.6903 7.55492 33.2517C7.32275 33.8132 7.20362 34.4149 7.20434 35.0225V35.1048C7.20361 35.7123 7.32277 36.3139 7.55497 36.8752C7.78718 37.4365 8.12787 37.9464 8.55751 38.3758C8.98716 38.8052 9.49732 39.1456 10.0588 39.3775C10.6202 39.6093 11.2219 39.7281 11.8293 39.7271C13.0535 39.7271 13.7836 39.2906 14.7086 38.7225C14.7655 38.6875 14.8278 38.6486 14.8953 38.6065C15.9239 37.9643 18.1694 36.5623 21.4278 36.5623C24.6902 36.5623 26.9349 37.9654 27.9637 38.6084L27.9644 38.6089L27.9659 38.6098C28.0312 38.6506 28.0916 38.6884 28.147 38.7225C29.0748 39.2934 29.7939 39.7271 31.0263 39.7271C31.6338 39.7281 32.2354 39.6093 32.7969 39.3775C33.3583 39.1456 33.8685 38.8052 34.2981 38.3758C34.7278 37.9464 35.0684 37.4365 35.3006 36.8752C35.5329 36.3139 35.652 35.7123 35.6513 35.1048V35.0225C35.652 34.4149 35.5329 33.8132 35.3007 33.2517C35.0685 32.6903 34.7279 32.1802 34.2983 31.7505C33.8687 31.3209 33.3585 30.9803 32.7971 30.7481C32.2356 30.5159 31.6339 30.3968 31.0263 30.3975ZM45.6834 31.177C46.4439 30.6688 47.3381 30.3975 48.2529 30.3975C49.4792 30.3983 50.6552 30.8858 51.5224 31.753C52.3896 32.6201 52.8771 33.7961 52.8778 35.0225C52.8778 35.9372 52.6066 36.8314 52.0984 37.592C51.5902 38.3526 50.8679 38.9454 50.0228 39.2954C49.1777 39.6455 48.2477 39.737 47.3506 39.5586C46.4534 39.3801 45.6293 38.9397 44.9825 38.2928C44.3357 37.646 43.8952 36.8219 43.7168 35.9248C43.5383 35.0276 43.6299 34.0977 43.9799 33.2526C44.33 32.4075 44.9228 31.6852 45.6834 31.177ZM9.24993 19.8451C9.24993 22.3994 7.17925 24.47 4.62496 24.47C2.07066 24.47 0 22.3994 0 19.8451C0 17.2908 2.07066 15.2201 4.62496 15.2201C7.17925 15.2201 9.24993 17.2908 9.24993 19.8451Z" fill="white"/>
</svg>
