<svg width="40" height="40" viewBox="0 0 40 40" fill="none" xmlns="http://www.w3.org/2000/svg">
<path d="M15.55 39.1H3C2.2 39.1 1.5 38.8 0.9 38.2C0.3 37.6 0 36.9 0 36.1V7C0 6.2 0.258333 5.5 0.775 4.9C1.29167 4.3 1.73333 4 2.1 4H12.2C12.4333 2.83333 13.0083 1.875 13.925 1.125C14.8417 0.375 15.9 0 17.1 0C18.3 0 19.3583 0.375 20.275 1.125C21.1917 1.875 21.7667 2.83333 22 4H32.1C32.9 4 33.6 4.3 34.2 4.9C34.8 5.5 35.1 6.2 35.1 7V17.15H32.1V7H26.8V13.5H8.3V7H3V36.1H15.55V39.1ZM25 37.85L17 29.85L19.15 27.7L25 33.55L36.95 21.6L39.1 23.75L25 37.85ZM18 6.8C18.5667 6.8 19.0417 6.60833 19.425 6.225C19.8083 5.84167 20 5.36667 20 4.8C20 4.23333 19.8083 3.75833 19.425 3.375C19.0417 2.99167 18.5667 2.8 18 2.8C17.4333 2.8 16.9583 2.99167 16.575 3.375C16.1917 3.75833 16 4.23333 16 4.8C16 5.36667 16.1917 5.84167 16.575 6.225C16.9583 6.60833 17.4333 6.8 18 6.8Z" fill="white"/>
</svg>
