<svg width="43" height="45" viewBox="0 0 43 45" fill="none" xmlns="http://www.w3.org/2000/svg">
<g filter="url(#filter0_d_2192_81196)">
<path fill-rule="evenodd" clip-rule="evenodd" d="M34.5641 20.8828L37.8063 23.3359C38.3141 23.7188 38.4548 24.4141 38.1657 24.9609L35.5173 29.5469C35.197 30.0859 34.5251 30.3125 33.947 30.0703L30.197 28.4922C28.9938 29.5234 27.5954 30.3359 26.072 30.875L25.5641 34.9062C25.486 35.5312 24.9548 36 24.322 36H19.0251C18.3923 36 17.861 35.5312 17.7829 34.9062L17.2751 30.875C15.7516 30.3359 14.3532 29.5234 13.1501 28.4922L9.40008 30.0703C8.81414 30.3203 8.14227 30.0938 7.82977 29.5469L5.18133 24.9609C4.86883 24.4141 5.00945 23.7188 5.50945 23.3359L8.75164 20.8828C8.61102 20.1094 8.53289 19.3125 8.53289 18.5C8.53289 17.6875 8.61102 16.8906 8.73602 16.1172L5.49383 13.6641C4.99383 13.2812 4.8532 12.5859 5.1657 12.0391L7.81414 7.45312C8.13445 6.91406 8.80633 6.6875 9.38445 6.92969L13.1345 8.50781C14.3376 7.47656 15.736 6.66406 17.2595 6.125L17.7673 2.09375C17.8454 1.46875 18.3766 1 19.0095 1H24.3063C24.9391 1 25.4704 1.46875 25.5485 2.09375L26.0407 6.125C27.5641 6.66406 28.9626 7.47656 30.1657 8.50781L33.9157 6.92969C34.5016 6.67969 35.1735 6.90625 35.486 7.45312L38.1345 12.0391C38.447 12.5859 38.3063 13.2812 37.8063 13.6641L34.5641 16.1172C34.7048 16.8906 34.7829 17.6875 34.7829 18.5C34.7829 19.3125 34.7048 20.1094 34.5641 20.8828ZM15.0955 18.5C15.0955 22.125 18.033 25.0625 21.658 25.0625C25.283 25.0625 28.2205 22.125 28.2205 18.5C28.2205 14.875 25.283 11.9375 21.658 11.9375C18.033 11.9375 15.0955 14.875 15.0955 18.5Z" fill="#9891CC" shape-rendering="crispEdges"/>
<path d="M37.8063 23.3359L37.5046 23.7347L37.5053 23.7352L37.8063 23.3359ZM34.5641 20.8828L34.0722 20.7934L34.0172 21.096L34.2625 21.2815L34.5641 20.8828ZM38.1657 24.9609L38.5987 25.211L38.6034 25.2029L38.6077 25.1946L38.1657 24.9609ZM35.5173 29.5469L35.9471 29.8023L35.9502 29.7969L35.5173 29.5469ZM33.947 30.0703L33.753 30.5312L33.7538 30.5315L33.947 30.0703ZM30.197 28.4922L30.3909 28.0313L30.1061 27.9115L29.8716 28.1126L30.197 28.4922ZM26.072 30.875L25.9052 30.4036L25.6144 30.5065L25.5759 30.8125L26.072 30.875ZM25.5641 34.9062L25.0681 34.8438L25.068 34.8442L25.5641 34.9062ZM17.7829 34.9062L18.279 34.8442L18.279 34.8438L17.7829 34.9062ZM17.2751 30.875L17.7712 30.8125L17.7326 30.5065L17.4419 30.4036L17.2751 30.875ZM13.1501 28.4922L13.4755 28.1126L13.2409 27.9115L12.9561 28.0313L13.1501 28.4922ZM9.40008 30.0703L9.20613 29.6095L9.20386 29.6104L9.40008 30.0703ZM7.82977 29.5469L8.26389 29.2988L8.26275 29.2968L7.82977 29.5469ZM5.18133 24.9609L4.7472 25.209L4.74835 25.211L5.18133 24.9609ZM5.50945 23.3359L5.20776 22.9372L5.2055 22.9389L5.50945 23.3359ZM8.75164 20.8828L9.05333 21.2815L9.29859 21.096L9.24358 20.7934L8.75164 20.8828ZM8.73602 16.1172L9.22961 16.197L9.27761 15.9L9.0377 15.7185L8.73602 16.1172ZM5.49383 13.6641L5.18987 14.0611L5.19214 14.0628L5.49383 13.6641ZM5.1657 12.0391L4.73272 11.789L4.73158 11.791L5.1657 12.0391ZM7.81414 7.45312L7.38427 7.19769L7.38116 7.20307L7.81414 7.45312ZM9.38445 6.92969L9.5784 6.46883L9.57765 6.46852L9.38445 6.92969ZM13.1345 8.50781L12.9405 8.96867L13.2253 9.0885L13.4598 8.88744L13.1345 8.50781ZM17.2595 6.125L17.4262 6.59636L17.717 6.49348L17.7555 6.18749L17.2595 6.125ZM17.7673 2.09375L18.2633 2.15624L18.2634 2.15577L17.7673 2.09375ZM25.5485 2.09375L26.0448 2.03315L26.0447 2.03173L25.5485 2.09375ZM26.0407 6.125L25.5444 6.1856L25.5819 6.49304L25.8739 6.59636L26.0407 6.125ZM30.1657 8.50781L29.8403 8.88744L30.0749 9.0885L30.3596 8.96867L30.1657 8.50781ZM33.9157 6.92969L34.1096 7.39055L34.1119 7.38958L33.9157 6.92969ZM35.486 7.45312L35.0519 7.7012L35.053 7.70318L35.486 7.45312ZM38.1345 12.0391L38.5686 11.791L38.5674 11.789L38.1345 12.0391ZM37.8063 13.6641L38.108 14.0628L38.1103 14.0611L37.8063 13.6641ZM34.5641 16.1172L34.2625 15.7185L34.0172 15.904L34.0722 16.2066L34.5641 16.1172ZM38.108 22.9372L34.8658 20.4841L34.2625 21.2815L37.5046 23.7347L38.108 22.9372ZM38.6077 25.1946C39.0086 24.4362 38.816 23.4709 38.1073 22.9367L37.5053 23.7352C37.8122 23.9666 37.9009 24.3919 37.7237 24.7273L38.6077 25.1946ZM35.9502 29.7969L38.5987 25.211L37.7327 24.7109L35.0843 29.2968L35.9502 29.7969ZM33.7538 30.5315C34.5649 30.8713 35.5012 30.5528 35.9471 29.8023L35.0874 29.2915C34.8927 29.6191 34.4852 29.7537 34.1401 29.6091L33.7538 30.5315ZM30.003 28.953L33.753 30.5312L34.1409 29.6095L30.3909 28.0313L30.003 28.953ZM26.2387 31.3464C27.8203 30.7867 29.2725 29.9431 30.5223 28.8718L29.8716 28.1126C28.7151 29.1038 27.3705 29.8851 25.9052 30.4036L26.2387 31.3464ZM26.0602 34.9687L26.568 30.9375L25.5759 30.8125L25.0681 34.8438L26.0602 34.9687ZM24.322 36.5C25.2061 36.5 25.9508 35.8443 26.0603 34.9683L25.068 34.8442C25.0213 35.2182 24.7035 35.5 24.322 35.5V36.5ZM19.0251 36.5H24.322V35.5H19.0251V36.5ZM17.2868 34.9683C17.3963 35.8443 18.141 36.5 19.0251 36.5V35.5C18.6436 35.5 18.3258 35.2182 18.279 34.8442L17.2868 34.9683ZM16.779 30.9375L17.2868 34.9687L18.279 34.8438L17.7712 30.8125L16.779 30.9375ZM12.8247 28.8718C14.0745 29.9431 15.5267 30.7867 17.1083 31.3464L17.4419 30.4036C15.9766 29.8851 14.6319 29.1038 13.4755 28.1126L12.8247 28.8718ZM9.59402 30.5312L13.344 28.953L12.9561 28.0313L9.20614 29.6095L9.59402 30.5312ZM7.39564 29.7949C7.83467 30.5632 8.77808 30.8793 9.5963 30.5302L9.20386 29.6104C8.8502 29.7613 8.44986 29.6243 8.26389 29.2988L7.39564 29.7949ZM4.74835 25.211L7.39678 29.7969L8.26275 29.2968L5.61431 24.7109L4.74835 25.211ZM5.2055 22.9389C4.50694 23.4738 4.31044 24.4447 4.74721 25.209L5.61545 24.7129C5.42722 24.3835 5.51197 23.9637 5.81341 23.7329L5.2055 22.9389ZM8.44995 20.4841L5.20777 22.9372L5.81114 23.7347L9.05333 21.2815L8.44995 20.4841ZM8.03289 18.5C8.03289 19.3446 8.1141 20.1714 8.25971 20.9723L9.24358 20.7934C9.10793 20.0473 9.03289 19.2804 9.03289 18.5H8.03289ZM8.24242 16.0374C8.11407 16.8316 8.03289 17.6556 8.03289 18.5H9.03289C9.03289 17.7194 9.10797 16.9496 9.22961 16.197L8.24242 16.0374ZM5.19214 14.0628L8.43433 16.5159L9.0377 15.7185L5.79552 13.2653L5.19214 14.0628ZM4.73158 11.791C4.29481 12.5553 4.49131 13.5262 5.18987 14.0611L5.79778 13.2671C5.49634 13.0363 5.41159 12.6165 5.59983 12.2871L4.73158 11.791ZM7.38116 7.20307L4.73272 11.789L5.59869 12.2891L8.24712 7.70318L7.38116 7.20307ZM9.57765 6.46852C8.76648 6.12871 7.83023 6.44725 7.3843 7.19771L8.24398 7.70854C8.43868 7.38088 8.84618 7.24629 9.19126 7.39086L9.57765 6.46852ZM13.3284 8.04696L9.5784 6.46883L9.19051 7.39054L12.9405 8.96867L13.3284 8.04696ZM17.0927 5.65364C15.5111 6.21327 14.0589 7.05689 12.8091 8.12818L13.4598 8.88744C14.6163 7.89623 15.9609 7.11485 17.4262 6.59636L17.0927 5.65364ZM17.2712 2.03126L16.7634 6.06251L17.7555 6.18749L18.2633 2.15624L17.2712 2.03126ZM19.0095 0.5C18.1253 0.5 17.3806 1.15566 17.2711 2.03173L18.2634 2.15577C18.3101 1.78184 18.6279 1.5 19.0095 1.5V0.5ZM24.3063 0.5H19.0095V1.5H24.3063V0.5ZM26.0447 2.03173C25.9351 1.15566 25.1904 0.5 24.3063 0.5V1.5C24.6878 1.5 25.0056 1.78184 25.0524 2.15577L26.0447 2.03173ZM26.537 6.0644L26.0448 2.03315L25.0522 2.15435L25.5444 6.1856L26.537 6.0644ZM30.4911 8.12818C29.2413 7.05689 27.7891 6.21327 26.2075 5.65364L25.8739 6.59636C27.3392 7.11485 28.6839 7.89623 29.8403 8.88744L30.4911 8.12818ZM33.7218 6.46883L29.9718 8.04696L30.3596 8.96867L34.1096 7.39054L33.7218 6.46883ZM35.9201 7.20506C35.4811 6.43676 34.5377 6.12069 33.7195 6.4698L34.1119 7.38958C34.4656 7.23868 34.8659 7.37574 35.0519 7.70119L35.9201 7.20506ZM38.5674 11.789L35.919 7.20307L35.053 7.70318L37.7015 12.2891L38.5674 11.789ZM38.1103 14.0611C38.8088 13.5262 39.0053 12.5553 38.5686 11.791L37.7003 12.2871C37.8886 12.6165 37.8038 13.0363 37.5024 13.2671L38.1103 14.0611ZM34.8658 16.5159L38.108 14.0628L37.5046 13.2653L34.2625 15.7185L34.8658 16.5159ZM35.2829 18.5C35.2829 17.6554 35.2017 16.8286 35.0561 16.0277L34.0722 16.2066C34.2079 16.9527 34.2829 17.7196 34.2829 18.5H35.2829ZM35.0561 20.9723C35.2017 20.1714 35.2829 19.3446 35.2829 18.5H34.2829C34.2829 19.2804 34.2079 20.0473 34.0722 20.7934L35.0561 20.9723ZM21.658 24.5625C18.3091 24.5625 15.5955 21.8489 15.5955 18.5H14.5955C14.5955 22.4011 17.7568 25.5625 21.658 25.5625V24.5625ZM27.7205 18.5C27.7205 21.8489 25.0068 24.5625 21.658 24.5625V25.5625C25.5591 25.5625 28.7205 22.4011 28.7205 18.5H27.7205ZM21.658 12.4375C25.0068 12.4375 27.7205 15.1511 27.7205 18.5H28.7205C28.7205 14.5989 25.5591 11.4375 21.658 11.4375V12.4375ZM15.5955 18.5C15.5955 15.1511 18.3091 12.4375 21.658 12.4375V11.4375C17.7568 11.4375 14.5955 14.5989 14.5955 18.5H15.5955Z" fill="black" fill-opacity="0.21"/>
</g>
<defs>
<filter id="filter0_d_2192_81196" x="0.5" y="0.5" width="42.3135" height="44" filterUnits="userSpaceOnUse" color-interpolation-filters="sRGB">
<feFlood flood-opacity="0" result="BackgroundImageFix"/>
<feColorMatrix in="SourceAlpha" type="matrix" values="0 0 0 0 0 0 0 0 0 0 0 0 0 0 0 0 0 0 127 0" result="hardAlpha"/>
<feOffset dy="4"/>
<feGaussianBlur stdDeviation="2"/>
<feComposite in2="hardAlpha" operator="out"/>
<feColorMatrix type="matrix" values="0 0 0 0 0 0 0 0 0 0 0 0 0 0 0 0 0 0 0.25 0"/>
<feBlend mode="normal" in2="BackgroundImageFix" result="effect1_dropShadow_2192_81196"/>
<feBlend mode="normal" in="SourceGraphic" in2="effect1_dropShadow_2192_81196" result="shape"/>
</filter>
</defs>
</svg>
